<svg width="67" height="68" viewBox="0 0 67 68" fill="none" xmlns="http://www.w3.org/2000/svg">
<path d="M33.5 0.984375C14.9817 0.984375 0 16.0164 0 34.4844C0 52.9096 14.9276 67.9844 33.5 67.9844C52.012 67.9844 67 52.9569 67 34.4844C67 16.0283 52.0271 0.984375 33.5 0.984375ZM57.156 54.2375C54.5338 52.8898 51.5623 51.837 48.6744 51.0874C50.0277 46.4701 50.7967 41.2604 50.9054 35.8244H64.2908C63.9983 42.5847 61.4974 49.0436 57.156 54.2375ZM9.84391 54.2375C5.50258 49.0435 3.00173 42.5847 2.70908 35.8244H16.0945C16.2033 41.2604 16.9723 46.4701 18.3254 51.0874C15.4349 51.8386 12.5132 52.8709 9.84391 54.2375ZM9.84391 14.7312C12.5089 16.0965 15.4392 17.13 18.3254 17.8814C16.9723 22.4986 16.2033 27.7083 16.0945 33.1444H2.70908C3.00173 26.3839 5.50258 19.9251 9.84391 14.7312ZM47.8463 15.3318C46.4894 11.5492 44.4702 7.59888 41.6449 4.76465C46.7585 6.16924 51.4689 8.88006 55.2726 12.6743C52.9476 13.7964 50.2807 14.7231 47.8463 15.3318ZM34.84 17.0488V3.79663C38.1123 4.43782 41.2078 7.4149 43.6717 12.3432C44.2353 13.4704 44.75 14.6702 45.2147 15.9314C41.7992 16.6168 38.2953 16.9757 34.84 17.0488ZM32.16 17.0488C28.6753 16.9751 25.162 16.6104 21.7853 15.9314C22.2499 14.6701 22.7647 13.4702 23.3282 12.3432C25.7923 7.4149 28.8877 4.43769 32.16 3.79663V17.0488ZM32.16 19.7294V33.1444H18.7749C18.8835 27.9008 19.629 22.8957 20.9371 18.4901C24.4081 19.2085 28.2061 19.649 32.16 19.7294ZM32.16 35.8244V49.2394C28.4256 49.3154 24.5798 49.7216 20.9372 50.4786C19.629 46.0731 18.8835 41.0679 18.7749 35.8244H32.16ZM32.16 51.9199V65.1721C28.8877 64.5309 25.7923 61.5537 23.3282 56.6256C22.7646 55.4984 22.2499 54.2986 21.7853 53.0373C25.0319 52.382 28.5648 51.996 32.16 51.9199ZM34.84 51.9199C38.4269 51.9958 41.9455 52.3787 45.2147 53.0373C44.75 54.2986 44.2353 55.4984 43.6717 56.6256C41.2077 61.5537 38.1123 64.5309 34.84 65.1721V51.9199ZM34.84 49.2394V35.8244H48.2253C48.1165 41.0679 47.3711 46.0731 46.0628 50.4786C42.6123 49.762 38.7887 49.3198 34.84 49.2394ZM34.84 33.1444V19.7294C38.8384 19.648 42.6218 19.2013 46.0629 18.4901C47.3711 22.8955 48.1165 27.9008 48.2253 33.1444H34.84ZM19.1537 15.3318C16.6412 14.6973 14.0535 13.7987 11.7273 12.6743C15.5311 8.88006 20.2415 6.16924 25.3552 4.76465C22.5257 7.60304 20.5072 11.5584 19.1537 15.3318ZM19.1537 53.637C20.5067 57.4094 22.5254 61.3656 25.3552 64.2041C20.2415 62.7995 15.5311 60.0886 11.7273 56.2945C14.057 55.1678 16.6459 54.2734 19.1537 53.637ZM47.8462 53.637C50.2475 54.2372 52.9486 55.1698 55.2727 56.2945C51.4689 60.0886 46.7585 62.7995 41.6449 64.2041C44.4745 61.3654 46.4934 57.4091 47.8462 53.637ZM50.9055 33.1444C50.7967 27.7083 50.0277 22.4986 48.6746 17.8814C51.6106 17.1189 54.551 16.0671 57.1561 14.7313C61.4974 19.9251 63.9984 26.3841 64.2909 33.1445H50.9055V33.1444Z" fill="url(#paint0_linear_4251_7523)"/>
<defs>
<linearGradient id="paint0_linear_4251_7523" x1="33.4996" y1="0.984637" x2="33.4996" y2="67.9842" gradientUnits="userSpaceOnUse">
<stop stop-color="#5CC6D0"/>
<stop offset="0.490196" stop-color="#A53692"/>
<stop offset="1" stop-color="#F06277"/>
</linearGradient>
</defs>
</svg>
